<svg id="Layer_1" enable-background="new 0 0 511.958 511.958" height="512" viewBox="0 0 511.958 511.958" width="512" xmlns="http://www.w3.org/2000/svg"><g><g><path d="m285.142 12.133c-51.663-8.926-102.642-6.331-145.103 18.875-148.749 88.305-94.321 473.45 7.891 473.45 43.595 0 67.871-64.228 80.207-114.608 14.844 3.697 30.384 5.669 46.392 5.669 104.342 0 188.929-83.443 188.929-186.374s-80.291-180.075-178.316-197.012zm39.856 274.358c-33.058 0-59.856-34.495-59.856-77.047s26.799-77.047 59.856-77.047c33.058 0 59.856 34.495 59.856 77.047s-26.798 77.047-59.856 77.047z" fill="#a0d2ff"/><g fill="#82c4ff"><path d="m190.625 379.291c-10.285 42-31.358 104.175-62.514 120.187 6.362 3.242 12.982 4.98 19.819 4.98 42.025 0 65.528-56.875 80.207-114.608-12.434-1.724-28.845-6.225-37.512-10.559z"/><path d="m285.142 12.133c-23.988-4.145-47.827-5.8-70.736-3.866 10.177.776 20.442 2.088 30.736 3.866 98.026 16.937 178.317 94.08 178.317 197.011 0 96.241-73.949 175.436-168.851 185.326 6.549.679 13.191 1.048 19.923 1.048 104.342 0 188.929-83.443 188.929-186.374s-80.293-180.074-178.318-197.011z"/></g></g><g><path d="m418.931 75.861c-6.535-7.165-17.618 2.943-11.083 10.107 31.474 34.515 48.111 77.108 48.111 123.176 0 98.632-81.389 178.875-181.429 178.875-15.069 0-30.068-1.833-44.58-5.447-4.554-.688-7.586 1.143-9.097 5.494-9.958 40.667-32.674 108.892-72.923 108.892-14.442 0-28.499-9.357-41.78-27.813-13.135-18.251-24.677-44.656-33.379-76.359-17.15-62.486-21.462-138.153-11.533-202.409 5.466-35.377 14.911-66.229 28.072-91.699 14.261-27.598 32.617-48.195 54.558-61.22 36.469-21.65 83.572-27.685 139.997-17.934 34.963 6.041 68.008 20.123 95.564 40.723 7.767 5.805 16.748-6.207 8.981-12.014-29.441-22.01-64.709-37.049-101.992-43.491-60.046-10.375-110.581-3.707-150.207 19.817-24.393 14.481-44.657 37.102-60.226 67.233-13.908 26.914-23.857 59.313-29.571 96.295-10.235 66.24-5.789 144.248 11.893 208.67 20.094 73.212 52.761 115.202 89.624 115.202 45.892 0 71.758-59.904 85.68-113.162 13.407 2.804 27.137 4.223 40.919 4.223 108.311 0 196.429-86.972 196.429-193.875 0-49.871-17.991-95.96-52.028-133.284z"/><path d="m324.998 278.991c-9.886 0-19.541-3.737-27.921-10.807-7.414-6.251-17.084 5.213-9.672 11.466 11.122 9.382 24.122 14.341 37.593 14.341 37.141 0 67.356-37.928 67.356-84.547s-30.216-84.547-67.356-84.547-67.356 37.928-67.356 84.547c0 11.786 1.903 23.218 5.655 33.977 3.192 9.157 17.357 4.217 14.163-4.939-3.197-9.167-4.818-18.938-4.818-29.038 0-38.348 23.487-69.547 52.356-69.547 28.87 0 52.356 31.199 52.356 69.547s-23.487 69.547-52.356 69.547z"/><path d="m87.23 316.494c-4.122.403-7.137 4.069-6.736 8.191.087.891 2.202 22.145 8.659 49.366 8.754 36.904 20.81 65.651 35.832 85.441 6.051 7.969 17.688-1.506 11.948-9.069-32.979-43.448-41.428-126.362-41.51-127.194-.404-4.122-4.07-7.135-8.193-6.735z"/></g></g></svg>