<svg id="Layer_1" enable-background="new 0 0 512 512" height="512" viewBox="0 0 512 512" width="512" xmlns="http://www.w3.org/2000/svg"><g><g><path d="m463.5 74.386c0-36.94-92.901-66.886-207.5-66.886s-207.5 29.946-207.5 66.886c0 31.203 66.284 57.414 155.939 64.804-4.367 34.823-6.846 74.583-6.846 116.81 0 137.243 26.15 248.5 58.407 248.5s58.407-111.257 58.407-248.5c0-42.227-2.479-81.987-6.846-116.81 89.655-7.39 155.939-33.601 155.939-64.804z" fill="#60dfb0"/><path d="m463.5 74.386c0-36.94-92.901-66.886-207.5-66.886-6.748 0-13.417.108-20 .311 105.214 3.244 187.5 31.81 187.5 66.576 0 31.203-66.284 57.414-155.939 64.804 4.368 34.823 6.846 74.583 6.846 116.81 0 107.352-16 198.8-38.407 233.544 6.239 9.674 12.974 14.956 20 14.956 32.257 0 58.407-111.257 58.407-248.5 0-42.227-2.479-81.987-6.846-116.81 89.655-7.391 155.939-33.602 155.939-64.805z" fill="#3dcc97"/></g><g><path d="m205.706 382.687c4.108-.529 7.01-4.289 6.48-8.397-4.64-36.018-7.093-76.922-7.093-118.29 0-40.4 2.347-80.47 6.787-115.877.117-4.745-2.158-7.547-6.825-8.408-96.815-7.98-149.055-35.493-149.055-57.329 0-28.089 82.137-59.386 200-59.386 35.394 0 70.251 2.95 100.804 8.531 9.539 1.739 12.235-13.014 2.695-14.756-31.427-5.74-67.216-8.775-103.499-8.775-56.186 0-109.11 7.086-149.025 19.952-54.529 17.577-65.975 39.303-65.975 54.434 0 18.449 16.946 35.141 49.007 48.272 27.147 11.119 64.573 19.328 106.064 23.314-3.916 34.063-5.978 71.917-5.978 110.027 0 41.998 2.495 83.564 7.216 120.207.48 3.722 4.661 6.963 8.397 6.481z"/><path d="m402.164 19.047c-9.262-2.877-13.709 11.45-4.447 14.325 36.495 11.333 58.283 26.665 58.283 41.014 0 21.835-52.24 49.349-149.056 57.329-4.667.861-6.943 3.663-6.825 8.408 4.44 35.407 6.787 75.477 6.787 115.877 0 65.816-6.005 127.61-16.908 174-11.623 49.453-25.579 67-33.998 67-5.492 0-12.236-7.34-18.504-20.139-7.252-14.81-13.853-36.819-19.089-63.647-1.859-9.516-16.579-6.645-14.723 2.874 8.542 43.754 24.549 95.912 52.316 95.912 19.995 0 36.348-26.434 48.601-78.568 11.16-47.481 17.306-110.495 17.306-177.432 0-38.11-2.062-75.964-5.977-110.027 41.49-3.987 78.916-12.195 106.063-23.314 32.061-13.132 49.007-29.824 49.007-48.273 0-22.22-23.803-41.356-68.836-55.339z"/><path d="m92.933 72.712c-3.464-2.252-8.1-1.279-10.365 2.182-2.268 3.466-1.296 8.114 2.17 10.382 1.504.983 37.733 24.142 117.789 29.208 9.437.601 10.362-14.375.947-14.97-75.452-4.774-110.052-26.488-110.541-26.802z"/></g></g></svg>